<svg xmlns="http://www.w3.org/2000/svg" viewBox="0 0 529.16 523.87"><g id="Capa_2" data-name="Capa 2"><g id="Capa_1-2" data-name="Capa 1"><path d="M216.74,4.65c8.45-1.4,16.87-3.07,25.37-4.12,5.24-.64,10.6-.36,15.91-.45C261.78,0,265.55,0,269.31,0c4,.05,8,.09,11.95.37,4.89.35,9.79.72,14.63,1.48,9.39,1.48,18.74,3.21,28.08,4.92,3.23.59,6.43,1.37,9.61,2.18a156.94,156.94,0,0,1,37.34,14.37c3.38,1.86,7.86,1.71,11.24,3.56,8.35,4.58,16.32,9.83,24.5,14.72,4.26,2.55,9.09,4.33,12.86,7.43C432,59.34,444.77,69.46,456.3,80.8c12.45,12.24,23.81,25.63,32.09,41.27,7.15,13.5,15.21,26.6,21.28,40.56,4.8,11,7.29,23.07,10.58,34.72,1.92,6.81,4,13.66,4.94,20.63,1.25,9.21,1.37,18.57,2.2,27.85.3,3.26,1.9,6.5,1.77,9.71-.39,9.22-1.34,18.43-2.1,27.64,0,.48-.5,1-.43,1.42,2.33,13.13-4.37,24.83-5.94,37.34-1.85,14.74-7.61,28.16-13.7,41.54-8.93,19.63-19.12,38.42-32.33,55.61a333.91,333.91,0,0,1-50,52c-3.25,2.74-7.14,4.72-10.78,7-9.74,6.09-19.25,12.61-29.33,18.06-7,3.8-15.2,5.52-22.31,9.24-11.83,6.19-24.66,9-37.4,11.94-10.52,2.42-21.38,3.53-32.13,4.84-7.45.91-15,1.47-22.48,1.67-6.45.18-13-1.24-19.37-.41-11.3,1.48-21.73-2.05-32.49-3.92a45.43,45.43,0,0,0-10.28-1.09c-10.3.64-18.43-5.29-27.48-8.46-4.17-1.46-8.59-2.24-12.71-3.81-5.5-2.09-10.89-4.5-16.19-7.08a144.47,144.47,0,0,1-13.64-7.5c-9.71-6.09-19.27-12.44-28.91-18.65-5.23-3.36-10.51-6.65-15.77-10-.56-.35-1.31-.52-1.71-1-12.69-14.8-25.26-29.69-38-44.41C45.42,408.06,39.8,396.9,33,386.51c-8.79-13.4-13.35-28.39-19.51-42.7-4.7-10.93-6.91-23-9.3-34.81-1.6-7.89-1.54-16.12-2.28-24.19a35.91,35.91,0,0,0-.85-4.3c-.35-1.6-1.08-3.2-1-4.79.24-14.64,0-29.33,1.17-43.91.79-9.64,3.47-19.16,5.75-28.63,2.46-10.18,4.86-20.44,8.37-30.29,3.1-8.74,7.67-17,11.63-25.39.91-1.93,2.29-3.69,2.93-5.69,1.83-5.73,3.91-11.17,8.78-15.23,1.64-1.37,2.32-3.86,3.53-5.78,6-9.55,10.81-19.88,20.1-27.21,4.56-3.6,7.54-9.13,11.64-13.4,3.15-3.28,7-5.91,10.4-8.94,5.27-4.66,10.17-9.81,15.75-14,10.22-7.76,20-17.07,31.49-22,16.71-7.13,31.55-18.44,49.89-22,10-2,19.61-5.51,29.43-8.22a38.69,38.69,0,0,1,5.83-.7ZM284.34,516l.18,1c9.85-1.9,19.73-3.63,29.53-5.76,9-1.94,17.81-4.34,26.72-6.52q5.49-1.35,11-2.63c4.16-1,8.74-1.12,12.41-3,11.54-6,22.88-12.44,34-19.17,9-5.46,19.08-10.22,26.19-17.67,17.77-18.61,38.38-34.78,51.66-57.5,4.5-7.69,10.56-14.54,14.46-22.48a311.78,311.78,0,0,0,15.44-36.85,271.2,271.2,0,0,0,11.5-45.84,192.39,192.39,0,0,0,1.68-43.32c-.43-6.1,0-12.24-.34-18.35-.26-5.42-.36-11-1.55-16.2-2.3-10.06-6.08-19.82-7.89-29.94-3.3-18.48-12.38-34.51-20.51-50.86a157.12,157.12,0,0,0-18.32-28.51,321.2,321.2,0,0,0-29-31.07C431,71.3,419.47,62.39,408.36,53a8.67,8.67,0,0,0-1.76-.93c-9.58-4.77-19.05-9.79-28.78-14.24-8.62-3.95-17.31-8-26.35-10.71-17-5.13-33.75-11.44-51.84-12.24-12.22-.54-24.4-2.6-36.6-2.61-11.3,0-22.65,1.49-33.9,2.91C223.33,16,217.7,18,212,19.41c-1.6.38-3.3.33-4.9.69-4.44,1-8.95,1.87-13.26,3.3-6.73,2.24-13.31,4.94-20,7.39-7.69,2.82-15.71,5-23,8.51a189.51,189.51,0,0,0-36.14,22.88c-7,5.6-14.89,10.15-21.19,16.39a335,335,0,0,0-38.19,44.52,219.29,219.29,0,0,0-30,61.4c-4.75,15.11-7.52,30.94-10,46.63A219.41,219.41,0,0,0,13,267c.2,16.64,1.11,33.32,5.2,49.59,3.2,12.69,5.23,25.92,10.29,37.85,6.35,15,14.73,29.25,23.24,43.21,6.83,11.21,15,21.63,22.9,32.15,2.44,3.25,6.09,5.57,9,8.48C91,445.49,98.05,453,105.57,460c11.31,10.55,24.65,18.12,38.32,25.16,5.61,2.89,10.76,7,16.63,9,12.66,4.33,23.93,11.64,37.6,14.24,10,1.89,20.31,2.09,29.94,5.23,8.85,2.88,17.84.89,26.74,2.1C264.48,517,274.48,516,284.34,516Z"/><path d="M223.46,267c-.52-6.52-1.12-12.46-1.45-18.41-.45-8-.74-16-1-24-.69-19.73-1.72-39.47-1.74-59.21,0-5,2.39-10.6,5.15-15,3.69-5.87,15.71-7.78,22.63-5.81,9.65,2.76,13.13,8.94,14.55,18.53,1.2,8.13,2,15.69-.07,23.81-1.08,4.23.36,9.14.86,13.72a2.93,2.93,0,0,0,1.73,2.08c4,.87,8.08,1.32,12.07,2.23,5.18,1.17,10.29,2.69,15.46,3.94a27.27,27.27,0,0,0,5.19.63c3.39.17,6.78.23,10.17.28,6.23.1,9.91,4.29,14,8.16a17.15,17.15,0,0,0,8.12,3.83c3.5.7,7.21.36,10.82.44,7.18.14,13.36,6.94,13.43,14.15.15,16.38.64,32.77.85,49.16q.21,15.54,0,31.09c-.08,5,.22,10.3-1.16,15-2,7-4.4,14.31-8.58,20.07-2.81,3.87-5.34,8.14-8.48,11.65a80.85,80.85,0,0,1-16.12,13.54c-2.92,1.9-7.26,2-11,2.2-11.93.56-23.87.78-35.81,1.08-8,.2-15.93.36-23.9.43a15.85,15.85,0,0,1-12.37-5.12c-10.13-10.89-18.7-22.91-27.06-35.2-8.24-12.11-16.59-24.08-22.72-37.41-1.89-4.1-2.54-8.75-4.17-13-3.33-8.6-6-17.2-5-26.68.61-6,6.25-12.65,12.31-13.3,9.08-1,16,3,21.24,10,2,2.6,3.53,4.43,7.09,4.19C219.78,264,221.16,265.56,223.46,267ZM278.05,216a23.12,23.12,0,0,0-2.38.14c-1.09.15-2.19.73-3.24.63-5.34-.52-6.55.74-7.27,6-.81,5.92,0,11.5,1.33,17.24.72,3.17.77,7.85-3.2,8.81s-8.66.31-12.88-.47c-.6-.11-.37-4.85-.49-7.46,0-1,.08-2,.05-3-.32-8.66-.69-17.31-1-26-.12-4.2.06-8.42-.1-12.61-.11-2.61-.84-5.2-.87-7.8-.12-8.55.43-17.15-.33-25.63-.24-2.7-3.3-6.28-5.92-7.36-3.44-1.4-7,2.11-7.57,6.2a60,60,0,0,0-.92,10.32c.62,14.51-.57,29,.62,43.55,1.12,13.78-.64,27.77-.56,41.67,0,7.9,1.34,15.79,1.83,23.71.1,1.58-.44,4-1.52,4.67-1.88,1.14-4.12,2.07-6.44-.64-2.64-3.1-6.2-5.42-9.44-8-3.94-3.11-8-6-11.94-9.2-2.35-1.9-4.14-4.75-6.75-6-2.34-1.13-6.06-1.77-8.08-.66-2.72,1.51-2.68,4.92-1.14,8.13,4.76,9.93,9,20.13,14,29.93,5.91,11.63,12,23.19,18.8,34.33,4.49,7.39,10.08,14.17,15.59,20.88,2.42,2.95,5.77,5.19,8.89,7.49,8.5,6.28,18.5,3.11,27.77,3.7,8.66.56,17.46-1.75,26.17-1.55,11.58.26,18.89-6.41,23.6-15,3.89-7.11,10.47-13.07,10.16-22.72-.21-6.75,3.61-13.56,4-20.43.91-16.75.82-33.55,1.22-50.32.1-4.11.57-8.22,1-13.45-2.76-1.61-1.73-5.05-.07-8.27-3.65-3.56-7.49-2.59-11.73-2.12-5,.55-6.08,3-5.92,7.15.23,6.1.56,12.2.72,18.3a6.73,6.73,0,0,1-.9,3.21,7,7,0,0,1-8.95,3.48,8.2,8.2,0,0,1-5.55-9c1.12-8.79,2.11-17.58,1.33-26.42a14.12,14.12,0,0,0-2.71-7.42,5.45,5.45,0,0,0-7.86-1.06c-2.72,1.9-5.67,3.19-4.36,7.63A57.93,57.93,0,0,1,297.15,243c.21,3.07-.7,6.2-.88,9.32-.29,5.27-4.82,8.93-11.15,8.84-4.07-.06-8.21-4.39-8.08-8.86.21-7.61.73-15.21,1-22.82C278.17,225.17,278.05,220.84,278.05,216Z"/><path d="M342.68,72.62C337.87,78.72,333,84.75,328.31,91c-2.27,3-4,6.43-6.14,9.53-2.88,4.14-7.13,3-10.87,2.05-4-1-5.94-4.18-5.47-8.24a9.54,9.54,0,0,1,2.5-5.08C313.45,83.82,319,78.84,324,73.31c3.84-4.26,6.87-9.25,10.56-13.66q8.73-10.41,17.95-20.39a5.41,5.41,0,0,1,4.83-1,5.33,5.33,0,0,1,2.79,4c.06,4.46-.48,8.94-.85,13.41-.6,7.24-1.6,14.47-1.75,21.71-.12,6,.74,12.1,1.2,18.61C373.17,84.46,383.53,67.6,402,61.39l1.82,1c-2,6.86-4.08,13.68-5.89,20.57-1.7,6.47-3.06,13-4.65,19.52-2,8.11-3.71,16.31-6.25,24.25-1,3.1-3.31,6.81-6,8.07-4,1.85-10-4.43-8.81-9,1.78-6.77,4.45-13.31,6.51-20a17.63,17.63,0,0,0,.33-7.56c-3.95,2.56-6.83,6.13-11.76,4-.31-.13-1,.22-1.31.53-4.17,3.84-8.28,7.75-12.48,11.56-1.34,1.22-2.76,2.81-4.37,3.16a14.84,14.84,0,0,1-7.07-.31c-.57-.17-.47-3.22-.37-4.93.41-7.57.95-15.12,1.41-22.68.32-5.33.57-10.66.85-16Z"/><path d="M84.94,288.93c4.16,0,8.36-.34,12.46.14,2,.24,5.38,2,5.39,3.07,0,3.45,2.74,7.81-1.59,10.37a24.42,24.42,0,0,1-9,3.51c-8.38,1.05-16.85,1.37-25.27,2.19-4.22.42-8.39,1.66-12.61,1.88-6.39.32-12.81.24-19.2,0-5.06-.16-8.16-4-8.89-8.05-1.25-7-1-14.25-1.46-21.39a11.13,11.13,0,0,0-1.1-4.22A7.08,7.08,0,0,1,26,267.12c2.36-1.77,6.69-3.38,8.85-2.34,2.53,1.22,4.42,5.18,5.16,8.3s-.23,6.53-.73,9.78c-1,6.48,1.84,10.49,7.28,10.09,4.29-.31,6.89-3.35,6.35-7.72-.49-4.07-1.23-8.11-1.87-12.16-1-6.25,1-9.76,6.54-11.33,5.14-1.47,9.37,1.43,9.61,6.82.19,4.16,0,8.33,0,12.5,0,6.34,2.08,8.26,8.27,7.91C78.61,288.79,81.78,288.94,84.94,288.93Z"/><path d="M215,73.23c1.2-5.08,2-10.3,3.68-15.19,3.1-8.83,13.42-13.42,24.41-10.9,4.57,1,8.65,1.45,13.21-.48,5.49-2.32,9-.28,10,5.58.82,4.62.53,9.43,1,14.12.69,7,1.21,14.09,2.5,21,1.68,9.06-.24,11.48-9.52,11.85-5,.19-10,1.31-14.94,2.27-6.75,1.31-12.61.74-18.5-3.81C218.59,91.31,215.12,83.47,215,73.23Zm38,1.67c0-1.66.13-3.34,0-5-.34-3.61-4.92-8.46-8.23-8.82-4.32-.46-8.32-.14-10.34,4.62-3,7.08-1.4,16,4.18,21.25a5.71,5.71,0,0,0,4.71,1.3C250.38,85.94,253,82.1,253,74.9Z"/><path d="M65.72,194.73c1.13.2,2.26.36,3.38.62,11,2.52,21.93,5.17,32.94,7.54,7.14,1.53,7.93,3.23,6.26,10.2a89.06,89.06,0,0,0-2,17.65c-.34,10.51-9.69,19.78-20.15,20.58-6.33.49-12.19.56-18.2-2C58,245.05,48.18,232.22,48.08,222c0-1.48,1.11-3,1.75-4.48,2.39-5.54,4.5-11.23,7.31-16.55C58.83,197.81,60.76,194,65.72,194.73Zm12.36,19.43c-9-.1-10.4.76-13,6.3-2.31,4.93,1.77,7.07,4.11,10A20.8,20.8,0,0,0,72,233.25c3.4,2.93,13.47,2.62,16.65-.47,3.43-3.35,4.73-10.79,2.28-14.94a6.19,6.19,0,0,0-3.74-2.48C83.68,214.65,80.06,214.4,78.08,214.16Z"/><path d="M179.42,109.48c1.69,11.54-6.77,17.62-13.19,24.81-7.67,8.59-17,5.44-25.83,3.27-2.63-.64-4.21-4.79-6.81-6.51-12.68-8.4-16.1-27.37-5.65-37.55,7.88-7.68,20.84-14,33.62-8.44,8.45,3.69,14.55,7.83,17.13,16.52C179.42,104.07,179.21,106.84,179.42,109.48Zm-41,1.92c1.95,3.2,3.84,5.81,5.23,8.67,2.12,4.33,11.15,6.51,14.59,2.91s7.56-7.34,5.83-13.82c-1.31-4.91-5.06-9.79-9.45-10-8.75-.52-14,2.44-15.44,8.7C138.9,109.24,138.61,110.68,138.46,111.4Z"/><path d="M420.24,118.51c10.77.19,15.16,8.1,20,15.44,2.14,3.25,3.93,6.76,6.4,9.72,3.93,4.72,4.05,8.63-.83,12.26-6.46,4.79-13.31,9-19.78,13.83-2.59,1.92-4.66,4.56-6.85,7-2.93,3.21-5.72,3.48-8.81.17-6.23-6.68-12.8-13.07-18.74-20-4.34-5.06-3.58-16.32,1-21.15,5.42-5.64,10.27-12.1,18.17-14.66C413.92,120.09,417.1,119.36,420.24,118.51ZM416,159.89a24.51,24.51,0,0,0,3.28-.63c4.71-1.38,11.54-11.91,11-16.77-.46-3.78-5.85-9.7-8.43-9a76.07,76.07,0,0,0-10.64,3.7c-4.34,2-8.86,10.79-7.86,14.59C404.17,155.06,411.05,159.84,416,159.89Z"/><path d="M231.32,472.46c1.36-1.75,2.48-4.68,4.26-5.17,2.9-.79,6.3-.33,9.36.26a48.3,48.3,0,0,1,10.35,3.28c1.29.56,2.92,2.65,2.77,3.83-1.33,10.17-5.17,19-15.14,23.6-7.22,3.34-14.37,5.39-22.57,1.9a43.08,43.08,0,0,1-22.2-20.8c-.92-1.77-.57-4.27-.56-6.43,0-3,.13-5.94.41-8.89,1.2-12.4,8.78-23.5,21-26.48s23.91-.61,33.83,7.3c6.31,5,6.16,8.16.44,13.57L248.37,455c-3.18-2.27-6.41-4.47-9.54-6.82-5.8-4.33-11.93-3.62-17.7-.53a25.26,25.26,0,0,0-7.67,7.16c-2.15,2.82-4.67,6.18-4.93,9.47-.56,6.87.33,13.88,5.06,19.57,1.79,2.15,3.92,4,5.9,6a7.49,7.49,0,0,0,1.12,1c4.92,3.32,21.33-.79,24.12-6a5.27,5.27,0,0,0-4.72-7.44C236,477.46,233.39,475.93,231.32,472.46Z"/><path d="M418.42,191.75c10.68-3.46,20.58-6.69,30.5-9.88,3.13-1,6.27-2,9.45-2.8,5.13-1.29,8.76,1.09,8.76,6.42,0,3.67,1.88,5.57,4,8,6.44,7.41,9.22,25.18-4.28,31.48-6.27,2.92-13.09,4.69-19.7,6.87-3.09,1-6.39,1.46-9.4,2.66-4.16,1.67-5.39-1.26-6.63-3.9-1.37-2.92-2.41-6.16,1.85-7.8,7-2.7,14-5.48,21.19-7.82,8.71-2.84,11.4-11.06,5.59-18-1.94-2.32-8.83-2.56-11.95-1.45-7.33,2.61-14.83,4.75-22.35,6.75-1,.28-3.06-1-3.74-2.13C420.47,198.11,419.89,195.67,418.42,191.75Z"/><path d="M129.47,390a19.5,19.5,0,0,1,15.43,5.33,14.75,14.75,0,0,0,5.89,3.49c7.69,2.2,9.9,8.51,11.86,15.07.91,3-2.3,8.67-5.33,9.31-4.91,1-5.48-3.28-6.16-6.07-2.74-11.15-5.39-13.29-16.42-16-8-2-14.2,1-20.42,4.67-3.82,2.23-5.48,5.93-5.24,10.67.2,3.93-1.41,8.08-.7,11.85C110,437,118.56,444.73,126.73,446c2.49.39,5.76,0,5.56,4-.15,3-4.17,5.21-7.81,5.22-6.89,0-11.3-4.38-16.12-8.24-10-8-14-18.94-12-31,1.26-7.59,4.76-15,12.61-19.47C118.61,391,120.42,389.93,129.47,390Z"/><path d="M85,113.58c3.91,2.28,7.69,3.46,9.82,6,2.31,2.75,4.17,2.91,6.68,1.4,3.37-2,6.27-1.36,9.09,1,2.43,2,4.3,4.11,2.8,7.66a3.68,3.68,0,0,0,.52,3.2c5.91,6.57,11.42,13.58,19.38,18a10.67,10.67,0,0,1,2.24,2c2.2,2.22,4.06,4.54,1.68,7.78-4.76,6.44-5.54,7-10.4,3.66-5.62-3.86-10.6-8.66-16.17-12.62-3.79-2.69-6.89-7.13-13.19-3.64-5.31,2.95-11.17-2.75-10.35-8.7.27-2-.89-4.45-2.13-6.16-1.62-2.25-4.49-3.67-5.83-6-1.12-1.93-1.78-5.18-.89-7C79.46,117.63,82.35,116,85,113.58Z"/><path d="M189.49,423.37c-1,6.37-2,12.73-2.87,19.11-.27,1.91-1,4.19-.23,5.72,2.82,6,2.28,11.56.24,17.66-1.15,3.44-.3,7.54-.42,11.34-.08,2.49.11,5.11-.62,7.41a6.21,6.21,0,0,1-3.74,3.47c-2.26.64-4.39.26-5.07-3.06-.82-4-3-7.54-.31-11.8,1.47-2.37.79-5-2.37-6.52a61.85,61.85,0,0,1-10.21-5.81c-4.39-3.24-8-2.46-11.82.85-2.85,2.48-5.95,4.68-8.95,7-2.29,1.76-4.6,1.21-5.83-1a6.23,6.23,0,0,1,.08-5.14,18.93,18.93,0,0,1,4.7-5.1c10.44-8.86,20.82-17.8,31.51-26.34,4.41-3.51,9.57-6.09,14.38-9.09ZM177.3,456.1c.29-2.58.49-4.94.82-7.27.46-3.19-1.68-5.7-4.46-4.4-2.48,1.15-4.27,3.78-6.37,5.76a64.62,64.62,0,0,0,5.52,4.72C173.8,455.6,175.27,455.6,177.3,456.1Z"/><path d="M459.86,284.17c3.1-.26,9-.7,14.95-1.26,5.41-.52,5.89,3.65,6.29,7.1.42,3.68-2,6.1-5.69,6.08-8.14,0-16.49.6-24.34-1-7.29-1.51-15.67-4-18.48-12.19-3.26-9.54-3-19.49,3.44-27.88,3.17-4.1,7.81-6,13.79-5.43s12-1,18-1.1a41.19,41.19,0,0,1,11.8,1.5c3.77,1.07,3.44,5,2.24,7.4-1,2.09-3.74,3.94-6.09,4.66-7.87,2.42-15.36-1.91-23.16-1.88-9.34,0-11.84,6.14-10.7,15C443.38,286.68,450.62,283.47,459.86,284.17Z"/><path d="M91.77,163.36c2.56,1.91,5.82,4.69,9.42,6.94,3,1.86,6.63,2.71,9.48,4.72a94.65,94.65,0,0,1,11,9.57c.39.38-.59,2.6-1.35,3.66-2.28,3.12-5.26,5.4-9.28,3.78a101.59,101.59,0,0,1-11.82-5.88c-5.37-3-10.6-6.32-15.89-9.5-1.39,1.13-2.85,2.48-4.46,3.61C74,183.68,69,182.12,67,176.42c-1.6-4.44-2.59-9.15-7.51-11.45a4.1,4.1,0,0,1-1.61-2.38c-.9-2.82-3.11-6.5-2.1-8.36,2-3.58,6.31-4.27,10.45-3,1.58.47,3.11,1.1,4.64,1.71,2.86,1.16,5.17,2.37,8.37-.49,2.82-2.51,7.5-1.25,9.88,1.26C90.93,155.6,90.79,159.39,91.77,163.36Z"/><path d="M431.55,433.59c-1.22,5.2-4.18,7.45-8.87,6.65-3.87-.65-7.66-1.77-11.49-2.61s-7.9-1.66-12.5-2.63c3.55,6.07,6.73,11.53,10.42,17.85-1.52.92-3.39,2.7-5.49,3-1,.16-2.44-2.44-3.65-3.81a16.84,16.84,0,0,0-1.17-1.57c-6-5.4-10.86-11.54-13.69-19.2-.34-.92-1.71-1.41-2.51-2.19-4.09-4-8.43-7.71-12.13-12-2.62-3-2.3-6.59.61-9.77,4.27-4.68,8.9-8.75,15.07-10.8,3.93-1.31,13.76,1.72,16.86,5.84,4,5.33,5.37,11.09,1.57,16.29-1.31,1.79-1.31,4.54-1.95,7,5.42,1.56,10.12,3,14.86,4.26C422.05,431.2,426.63,432.32,431.55,433.59ZM379.47,413c1.64,2.55,3.2,5,4.8,7.48,3.33,5.07,8.84,5.89,10.58,1.3,1.41-3.75,1.77-8,1.95-12,.05-1.09-2.1-3-3.53-3.33C385.81,404.52,382.7,406.17,379.47,413Z"/><path d="M339.37,426.87c7.22-.93,10.85,4,15,7.48,5,4.24,9.55,9,14.35,13.53,3.51,3.28,7,6.57,10.69,9.68s7.55,6.08,11.32,9.09c-5.29,4.79-8.14,3.69-21-8.46-4.77,2.64-9.47,5.75-14.57,7.9s-5.36,5.59-4.71,10c.43,2.93,1.35,6.18.51,8.79-.68,2.14-3.65,3.55-5.61,5.28-1.08-1.61-3-3.17-3.11-4.85-.66-9.78-.76-19.59-1.31-29.37-.46-8.21-1.3-16.4-1.89-24.6A29.52,29.52,0,0,1,339.37,426.87Zm25.26,27.88c-3.88-3.66-6.79-6.88-10.23-9.4a7.26,7.26,0,0,0-5.91-.56c-1.13.4-2.21,3-2.08,4.46.53,6.06,4.49,8.88,10.54,7.75C359.32,456.56,361.6,455.65,364.63,454.75Z"/><path d="M274,502.24c-1.72-9.35-3.73-18-4.78-26.67-1-7.86-.86-15.84-1.22-23.77-.08-1.66.36-3.54-.28-4.94-1.6-3.52.13-5.19,3.07-5.76,3.51-.68,5.81,1.49,6.32,4.75.48,3.09-.08,6.33.18,9.47.42,5,1.28,10,1.72,15,.54,6.16,1.06,12.34,1.15,18.52,0,3.42,1.41,4.29,4.5,4.17a125.86,125.86,0,0,1,13.46.09c1.42.1,3.81,1.55,3.85,2.46,0,1.4-1.27,3.79-2.48,4.14a72,72,0,0,1-13,2.44C282.22,502.55,277.93,502.24,274,502.24Z"/><path d="M321.27,495.11c-2.7-6.59-5.93-13.14-8.08-20-2.91-9.36-5-19-7.42-28.49-.39-1.58-.43-3.25-.88-4.81-.62-2.2-1.5-4.54,2-4.7,2.45-.11,4.27-.69,6.54,2.81,6.56,10.08,4,21.86,7.85,32.25,1.73,4.68,3.47,9.36,5.43,13.95C329,491.41,328.17,493.24,321.27,495.11Z"/><path d="M401,382.32c.09-5.45,1-5.68,4.75-4.15,7.81,3.22,12.69,9.75,18.53,15.26,6.51,6.16,13.28,12,19.91,18.08a10.71,10.71,0,0,1,2.93,3.33c.54,1.32.89,3.77.2,4.33-1.3,1.05-3.64,1.85-5.13,1.39a17.08,17.08,0,0,1-6.13-4q-16.26-15-32.28-30.27A19.14,19.14,0,0,1,401,382.32Z"/></g></g></svg>